<?xml version="1.0" encoding="UTF-8" standalone="no"?>
<!-- Created with Inkscape (http://www.inkscape.org/) -->

<svg
   xmlns:dc="http://purl.org/dc/elements/1.1/"
   xmlns:cc="http://creativecommons.org/ns#"
   xmlns:rdf="http://www.w3.org/1999/02/22-rdf-syntax-ns#"
   xmlns:svg="http://www.w3.org/2000/svg"
   xmlns="http://www.w3.org/2000/svg"
   xmlns:sodipodi="http://sodipodi.sourceforge.net/DTD/sodipodi-0.dtd"
   xmlns:inkscape="http://www.inkscape.org/namespaces/inkscape"
   width="265.57111mm"
   height="266.16336mm"
   viewBox="0 0 940.99998 943.09852"
   id="svg2"
   version="1.1"
   inkscape:version="0.91 r13725"
   sodipodi:docname="camp.svg">
  <defs
     id="defs4" />
  <sodipodi:namedview
     id="base"
     pagecolor="#ffffff"
     bordercolor="#666666"
     borderopacity="1.0"
     inkscape:pageopacity="0.0"
     inkscape:pageshadow="2"
     inkscape:zoom="0.24748737"
     inkscape:cx="333.16778"
     inkscape:cy="360.57031"
     inkscape:document-units="px"
     inkscape:current-layer="layer1"
     showgrid="false"
     fit-margin-top="0"
     fit-margin-left="0"
     fit-margin-right="0"
     fit-margin-bottom="0"
     inkscape:window-width="1536"
     inkscape:window-height="801"
     inkscape:window-x="1912"
     inkscape:window-y="-8"
     inkscape:window-maximized="1" />
  <metadata
     id="metadata7">
    <rdf:RDF>
      <cc:Work
         rdf:about="">
        <dc:format>image/svg+xml</dc:format>
        <dc:type
           rdf:resource="http://purl.org/dc/dcmitype/StillImage" />
        <dc:title></dc:title>
      </cc:Work>
    </rdf:RDF>
  </metadata>
  <g
     inkscape:label="Layer 1"
     inkscape:groupmode="layer"
     id="layer1"
     transform="translate(233.57144,287.98633)"
     style="opacity:0.97">
    <rect
       style="fill:#ffffff;fill-opacity:1;stroke-width:1;stroke-miterlimit:4;stroke-dasharray:1, 2;stroke-dashoffset:0"
       id="rect4173"
       width="330"
       height="645.00006"
       x="87.857117"
       y="9.3978863" />
    <path
       style="fill:#00ae9a;fill-opacity:1"
       d="m -233.57144,651.35243 c 0,-2.06787 1.6063,-9.60537 3.5695,-16.75 1.9632,-7.14462 30.0735,-110.19022 62.4674,-228.99022 32.3939,-118.80001 59.538,-217.18739 60.3201,-218.63863 0.7822,-1.45124 15.057697,-21.25123 31.723377,-43.99999 16.665666,-22.74875 41.157206,-56.211375 54.425636,-74.361375 13.2684302,-18.15 60.51675,-82.725004 104.996283,-143.500004 C 159.36363,-177.95604 228.16447,-272.07275 236.201,-283.18706 l 3.47026,-4.79927 1.59188,2.29927 c 0.87554,1.2646 26.61137,36.49927 57.19073,78.29927 30.57937,41.8 102.33531,139.900001 159.45766,218.000005 57.12234,78.1 109.50415,149.649995 116.40401,158.999995 l 12.5452,16.99999 20.16639,78 c 43.5357,168.38839 100.40145,389.17662 100.40145,389.82093 0,0.37349 -90.675,0.67908 -201.5,0.67908 l -201.5,0 0,-28.29904 0,-28.29904 28,-31.65336 28,-31.65337 -0.0285,-156.7976 -0.0285,-156.7976 -38.60406,-20.91568 -38.60406,-20.91569 2.88261,-2.04086 c 6.07177,-4.29876 18.56657,-17.2552 23.44287,-24.30902 5.71012,-8.25998 10.86676,-18.85088 13.54478,-27.81874 2.43528,-8.15497 2.44454,-24.57938 0.0192,-33.999995 -7.73686,-30.05164 -36.19493,-58.48221 -66.12422,-66.060339 -9.33323,-2.36318 -25.47377,-2.37953 -36,-0.0365 -31.89573,7.099779 -58.21821,34.144789 -65.16439,66.953089 -1.89169,8.934865 -1.31595,29.436705 1.07116,38.143705 5.20037,18.96834 17.92848,36.27622 34.02019,46.26115 l 4.92695,3.05719 -42.17707,21.09319 -42.17696,21.09315 0,156.75355 0,156.75353 32,31.98828 32,31.98828 0,27.75586 0,27.75586 -204.500007,0 -204.500013,0 0,-3.75978 z"
       id="path4171"
       inkscape:connector-curvature="0" />
  </g>
</svg>
