<?xml version="1.0" encoding="UTF-8" standalone="no"?>
<!-- Created with Inkscape (http://www.inkscape.org/) -->

<svg
   xmlns:dc="http://purl.org/dc/elements/1.1/"
   xmlns:cc="http://creativecommons.org/ns#"
   xmlns:rdf="http://www.w3.org/1999/02/22-rdf-syntax-ns#"
   xmlns:svg="http://www.w3.org/2000/svg"
   xmlns="http://www.w3.org/2000/svg"
   xmlns:sodipodi="http://sodipodi.sourceforge.net/DTD/sodipodi-0.dtd"
   xmlns:inkscape="http://www.inkscape.org/namespaces/inkscape"
   width="264.58334mm"
   height="264.58334mm"
   viewBox="0 0 937.50003 937.50003"
   id="svg2"
   version="1.1"
   inkscape:version="0.92.2 (5c3e80d, 2017-08-06)"
   sodipodi:docname="planned_site.svg">
  <defs
     id="defs4" />
  <sodipodi:namedview
     id="base"
     pagecolor="#ffffff"
     bordercolor="#666666"
     borderopacity="1.0"
     inkscape:pageopacity="0.0"
     inkscape:pageshadow="2"
     inkscape:zoom="0.35"
     inkscape:cx="-1170.7766"
     inkscape:cy="635.13718"
     inkscape:document-units="px"
     inkscape:current-layer="layer1"
     showgrid="false"
     fit-margin-top="0"
     fit-margin-left="0"
     fit-margin-right="0"
     fit-margin-bottom="0"
     inkscape:window-width="1920"
     inkscape:window-height="1017"
     inkscape:window-x="3832"
     inkscape:window-y="-8"
     inkscape:window-maximized="1" />
  <metadata
     id="metadata7">
    <rdf:RDF>
      <cc:Work
         rdf:about="">
        <dc:format>image/svg+xml</dc:format>
        <dc:type
           rdf:resource="http://purl.org/dc/dcmitype/StillImage" />
        <dc:title></dc:title>
      </cc:Work>
    </rdf:RDF>
  </metadata>
  <g
     inkscape:label="Layer 1"
     inkscape:groupmode="layer"
     id="layer1"
     transform="translate(233.57144,282.3878)"
     style="opacity:1">
    <path
       style="fill:#ffffff;fill-opacity:1;fill-rule:evenodd;stroke:#ffffff;stroke-width:1px;stroke-linecap:butt;stroke-linejoin:miter;stroke-opacity:1"
       d="M -49.28572,82.25504 -32.14287,27.96933 242.14285,-180.60211 537.85714,45.11218 c 0,0 1.42857,98.57143 1.42857,91.42858 0,-7.14286 -588.57143,-54.28572 -588.57143,-54.28572 z"
       id="path4163"
       inkscape:connector-curvature="0" />
    <rect
       style="fill:#ffffff;fill-opacity:0.97254902;stroke-width:1;stroke-miterlimit:4;stroke-dasharray:1, 2;stroke-dashoffset:0"
       id="rect4161"
       width="587.14288"
       height="625.71429"
       x="-43.571442"
       y="29.397886" />
    <rect
       style="fill:#ffffff;fill-opacity:1;stroke-width:1;stroke-miterlimit:4;stroke-dasharray:1, 2;stroke-dashoffset:0"
       id="rect4173"
       width="330"
       height="645.00006"
       x="87.857117"
       y="9.3978863" />
    <path
       style="fill:#00ae9a;fill-opacity:0.97254902;stroke-width:1.00299931"
       d="M -121.15972,395.34695 V 135.58179 l -51.75502,39.2864 c -28.46524,21.60754 -53.85265,39.28644 -56.41627,39.28644 -2.56373,0 -4.4624,-28.00438 -4.21949,-62.23194 L -233.10861,89.690784 -0.16196899,-95.226891 C 127.95868,-196.93161 235.46726,-281.14795 238.746,-282.3743 c 3.27871,-1.22634 109.28608,81.23726 235.57193,183.252468 L 703.92856,86.360357 v 64.999423 c 0,61.1758 -0.72601,64.37975 -12.34107,54.46516 -50.10098,-42.76583 -84.49954,-69.90473 -88.60433,-69.90473 -2.65931,0 -4.83515,116.8182 -4.83515,259.59596 V 655.11219 H 548.78376 499.4195 V 353.21782 51.323515 L 372.29428,-52.707898 C 302.37539,-109.92518 242.43983,-155.70102 239.10414,-154.43199 c -3.3357,1.26904 -64.92559,48.71458 -136.86645,105.434521 L -28.563832,54.129699 -29.023485,354.62092 -29.483242,655.11219 H -75.321479 -121.15972 Z M 182.07787,624.013 c 0,-27.74632 -3.42139,-34.27986 -31.73417,-60.60036 l -31.73418,-29.5012 V 375.19743 216.48352 l 43.53983,-18.94683 43.53981,-18.94678 -14.35479,-16.00068 C 140.38538,105.7985 174.96171,22.12471 249.37821,22.12471 c 26.03351,0 34.92162,3.997418 55.87523,25.129838 33.19434,33.477629 34.59969,69.936622 4.04844,105.029522 l -20.86877,23.97104 42.02487,20.25746 42.02487,20.25744 v 161.36752 161.36753 l -31.73416,29.50119 c -27.39397,25.46637 -31.73416,33.37189 -31.73416,57.80351 v 28.30243 H 245.5462 182.07787 Z"
       id="path4157"
       inkscape:connector-curvature="0" />
  </g>
</svg>
